<?xml version="1.0" standalone="no"?>
<!DOCTYPE svg PUBLIC "-//W3C//DTD SVG 20010904//EN"
 "http://www.w3.org/TR/2001/REC-SVG-20010904/DTD/svg10.dtd">
<svg version="1.0" xmlns="http://www.w3.org/2000/svg"
 width="700.000000pt" height="700.000000pt" viewBox="0 0 700.000000 700.000000"
 preserveAspectRatio="xMidYMid meet">
<metadata>
Created by potrace 1.14, written by Peter Selinger 2001-2017
</metadata>
<g transform="translate(0.000000,700.000000) scale(0.100000,-0.100000)"
fill="#000000" stroke="none">
<path d="M0 3500 l0 -3500 235 0 235 0 0 1509 0 1509 30 4 30 5 0 -1514 0
-1513 235 0 235 0 0 3500 0 3500 -235 0 -235 0 0 -1549 c0 -1467 -1 -1549 -17
-1553 -10 -3 -24 -3 -30 -1 -10 4 -13 323 -13 1554 l0 1549 -235 0 -235 0 0
-3500z"/>
<path d="M1060 3500 l0 -3500 235 0 235 0 0 1509 0 1509 25 4 c13 3 27 3 30 0
3 -3 5 -684 5 -1514 l0 -1508 235 0 235 0 0 3500 -1 3500 -499 0 -500 0 0
-3500z m528 1513 c2 -1052 1 -1111 -15 -1115 -45 -12 -43 -54 -43 1116 l0
1113 28 -2 27 -1 3 -1111z"/>
<path d="M2120 6978 c-1 -29 -1 -6879 0 -6935 l0 -43 235 0 235 0 0 1509 0
1509 25 4 c14 3 27 3 29 -1 2 -3 4 -683 4 -1511 l0 -1505 234 -3 235 -2 0
1710 0 1709 -116 3 -116 3 -3 38 -3 37 119 0 119 0 -1 1748 -1 1747 -497 3
-498 2 0 -22z m526 -1964 c1 -735 -1 -1111 -8 -1115 -6 -4 -19 -4 -29 -2 -18
5 -19 36 -19 1120 l0 1114 28 -4 27 -4 1 -1109z"/>
<path d="M3179 6988 c-1 -17 -1 -6959 0 -6975 1 -10 108 -13 499 -13 l498 0 0
3500 0 3500 -498 0 c-391 0 -498 -3 -499 -12z m502 -907 l24 -19 0 -2557 c1
-2295 -1 -2560 -15 -2576 -45 -53 -43 -185 -44 2573 0 1429 2 2598 5 2598 4 0
17 -9 30 -19z"/>
<path d="M4235 3503 l0 -3498 265 -3 265 -2 -1 432 c-1 238 -2 436 -3 439 0 3
-13 6 -28 5 l-28 -1 0 3060 0 3060 -235 3 -235 2 0 -3497z"/>
<path d="M4827 6993 c-2 -5 -3 -1578 -3 -3498 l1 -3490 233 -3 c182 -2 232 0
233 10 0 7 2 685 2 1507 l2 1494 24 9 c13 4 26 6 29 3 3 -3 5 -684 5 -1515 l1
-1510 235 2 235 3 0 3485 c1 1917 0 3491 -2 3498 -3 9 -111 12 -497 12 -272 0
-496 -3 -498 -7z m524 -883 c3 -54 4 -2187 1 -2197 -2 -7 -16 -13 -31 -13
l-27 0 0 1108 c-1 738 3 1109 10 1114 17 11 46 4 47 -12z"/>
<path d="M5883 3500 l0 -3500 234 0 233 0 1 58 c0 74 0 6913 0 6930 -1 9 -55
12 -234 12 l-234 0 0 -3500z"/>
<path d="M6412 6563 l3 -438 28 1 27 1 0 -3063 0 -3064 235 0 235 0 2 3062 3
3063 25 0 25 0 3 438 2 437 -295 0 -295 0 2 -437z"/>
</g>
</svg>
