<svg width="135" height="100" viewBox="0 0 135 100" fill="none" xmlns="http://www.w3.org/2000/svg">
<path d="M70.3355 87.2325V12.7675L71.4699 13.369V86.6308L70.3355 87.2325ZM80.5455 8.2582e-05H61.2599V99.9999H80.5455V8.2582e-05Z" fill="#F43425"/>
<path d="M135 0.000206455H123.655V12.5002H124.79V100H133.866V12.5002H135V0.000206455Z" fill="#F43425"/>
<path d="M10.2101 44.3181H9.07561V0H0V99.9998H9.07561V56.8181H10.2101V99.9998H19.2857V0H10.2101V44.3181Z" fill="#F43425"/>
<path d="M90.7563 0.000206455H81.6807V100H91.8908V87.5H90.7563V0.000206455Z" fill="#F43425"/>
<path d="M29.4951 12.5H30.6296V44.3181H29.4951V12.5ZM39.7052 0H20.4195V99.9999H29.4951V56.8181H30.6296V99.9999H39.7052V0Z" fill="#F43425"/>
<path d="M102.101 12.5H103.235V44.3181H102.101V12.5ZM112.311 0H93.0249V99.9999H102.101V56.8181H103.235V99.9999H112.311V0Z" fill="#F43425"/>
<path d="M122.521 0.000123873H113.446V99.9999H122.521V0.000123873Z" fill="#F43425"/>
<path d="M49.916 12.5H51.0504V44.3181H49.916V12.5ZM60.126 0H40.8404V99.9999H49.916V56.8181H51.0504V99.9999H60.126V51.1363H55.5882V49.9999H60.126V0Z" fill="#F43425"/>
</svg>
